<?xml version="1.0" encoding="UTF-8"?>
<svg xmlns="http://www.w3.org/2000/svg" xmlns:xlink="http://www.w3.org/1999/xlink" width="40px" height="40px" viewBox="0 0 40 40" version="1.1">
<g id="surface1">
<path style=" stroke:none;fill-rule:nonzero;fill:rgb(89.411765%,12.156863%,14.901961%);fill-opacity:1;" d="M 19.863281 0.382812 C 25.320312 0.382812 30.257812 2.59375 33.832031 6.167969 C 37.40625 9.746094 39.617188 14.683594 39.617188 20.136719 C 39.617188 25.59375 37.40625 30.53125 33.832031 34.105469 C 30.257812 37.679688 25.320312 39.890625 19.863281 39.890625 C 14.410156 39.890625 9.472656 37.679688 5.894531 34.105469 C 2.320312 30.53125 0.109375 25.59375 0.109375 20.136719 C 0.109375 14.683594 2.320312 9.746094 5.894531 6.167969 C 9.472656 2.59375 14.410156 0.382812 19.863281 0.382812 Z M 32.25 7.75 C 29.078125 4.582031 24.699219 2.621094 19.863281 2.621094 C 15.027344 2.621094 10.648438 4.582031 7.476562 7.75 C 4.308594 10.921875 2.347656 15.300781 2.347656 20.136719 C 2.347656 24.972656 4.308594 29.351562 7.476562 32.523438 C 10.648438 35.691406 15.027344 37.652344 19.863281 37.652344 C 24.699219 37.652344 29.078125 35.691406 32.25 32.523438 C 35.417969 29.351562 37.378906 24.972656 37.378906 20.136719 C 37.378906 15.300781 35.417969 10.921875 32.25 7.75 "/>
<path style=" stroke:none;fill-rule:evenodd;fill:rgb(89.411765%,12.156863%,14.901961%);fill-opacity:1;" d="M 7.289062 29.160156 L 17.976562 29.160156 L 12.667969 9.648438 Z M 7.289062 29.160156 "/>
<path style=" stroke:none;fill-rule:evenodd;fill:rgb(89.411765%,12.156863%,14.901961%);fill-opacity:1;" d="M 21.019531 29.160156 L 31.703125 29.160156 L 26.398438 9.648438 Z M 21.019531 29.160156 "/>
<path style=" stroke:none;fill-rule:evenodd;fill:rgb(89.411765%,12.156863%,14.901961%);fill-opacity:1;" d="M 14.140625 7.511719 L 24.824219 7.515625 L 19.515625 27.027344 Z M 14.140625 7.511719 "/>
</g>
</svg>
